PathFileType	4	(X/Y/Z)	Patient4_TMGait_0pt5_01_left_07.trc.trc
DataRate	CameraRate	NumFrames	NumMarkers	Units	OrigDataRate	OrigDataStartFrame	OrigNumFrames
74.468085106383	74.468085106383	7	33	mm	74.468085106383	53	       141
Frame#	Time	L.ASIS			Sacral			L.Shoulder			Chest			R.Shoulder			Neck			R.ASIS			R.Thigh.Superior			R.Thigh.Lateral			R.Thigh.Inferior			R.Patella			L.Thigh.Superior			L.Thigh.Lateral			L.Thigh.Inferior			L.Patella			L.Shank.Superior			L.Shank.Lateral			L.Shank.Inferior			R.Shank.Superior			R.Shank.Lateral			R.Shank.Inferior			R.Heel			R.Midfoot.Superior			R.Midfoot.Lateral			R.Toe			L.Heel			L.Midfoot.Lateral			L.Midfoot.Superior			L.Toe			L.Elbow			L.Wrist			R.Elbow			R.Wrist			
		X1	Y1	Z1	X2	Y2	Z2	X3	Y3	Z3	X4	Y4	Z4	X5	Y5	Z5	X6	Y6	Z6	X7	Y7	Z7	X8	Y8	Z8	X9	Y9	Z9	X10	Y10	Z10	X11	Y11	Z11	X12	Y12	Z12	X13	Y13	Z13	X14	Y14	Z14	X15	Y15	Z15	X16	Y16	Z16	X17	Y17	Z17	X18	Y18	Z18	X19	Y19	Z19	X20	Y20	Z20	X21	Y21	Z21	X22	Y22	Z22	X23	Y23	Z23	X24	Y24	Z24	X25	Y25	Z25	X26	Y26	Z26	X27	Y27	Z27	X28	Y28	Z28	X29	Y29	Z29	X30	Y30	Z30	X31	Y31	Z31	X32	Y32	Z32	X33	Y33	Z33	

53	10.098285714286	721.369962361389	964.783484736897	300.150285010923	502.134518109437	1007.897059072694	452.526349191567	685.807481119363	1444.269516164297	289.760345106175	780.666865743059	1364.758134075420	451.553226842465	690.040598280488	1434.682240754909	625.104915696026	684.305061182512	1498.190450674476	440.915157239679	726.320395336777	943.585723738345	574.116118039669	810.645767684796	775.650401606561	532.471476337242	776.757802900711	653.352264946996	599.423438677196	860.227757290158	615.895988959389	510.803758976750	880.265696012931	498.884632061411	529.038398432295	773.146319457982	752.652996514918	340.032048490992	688.529080063185	634.589091199123	281.567691416652	764.304943878955	558.973753913222	356.692627767503	763.001438402213	488.168161115579	370.816716124792	735.888100021945	415.691100937153	360.862353375177	651.056384512404	301.975070147312	302.886093949381	688.007354682292	192.305720932033	382.451279786523	798.368498373348	428.377816989257	540.948378071729	676.253999320101	397.574462562899	604.259028721648	653.197323490169	289.745545481233	557.823935055395	451.715444185285	254.387115172678	533.314556820700	605.849512761798	164.774391113247	572.638934955871	497.619970423663	182.277961538733	604.561575090503	647.774571479797	40.956961719634	594.891917250505	550.766871791176	37.706195610537	412.242889906539	631.719547639546	35.386544562097	338.102713544892	713.001585392356	95.914932416294	372.028774828128	843.118092725358	41.029614995125	354.634258558264	630.647665216023	1118.825833071600	123.873867737563	797.022722813486	918.680371773911	146.172414721332	602.096628569790	1096.905421729325	728.101463562485	632.889163784504	840.395351753295	763.059488072955	
54	10.111714285714	721.113115957351	964.968684313068	300.008658441611	501.613321866766	1008.368491745421	451.886447646361	687.310393495454	1444.601637008563	289.505308327208	781.080083533549	1364.837510685623	451.783340182751	689.790231988014	1434.928686356194	625.008298912688	685.197390587430	1498.471502469709	440.692474480595	725.659322048604	944.376169962233	574.073138846950	812.227822098028	779.611927368120	531.059459785207	781.673256163177	656.539827633455	598.053260937250	865.108197518626	620.933832756539	508.643182021582	887.909325173047	504.476053833458	526.767200923506	771.162429351012	751.712547845971	339.662512441532	685.249784395171	634.527577351074	281.203249071149	760.151598262257	558.158755509901	356.379083064112	758.156579424535	487.423677364991	370.552668576449	730.791925569359	415.251713441738	360.554263567604	645.379281928540	301.905710955526	302.701640463694	681.678862242616	192.102946381192	382.377345004393	808.274068960723	431.688762220919	539.036415091392	686.987811346109	396.627739857488	602.063268568936	667.864018230415	287.868720054360	555.845388940681	466.787653936271	243.226614515805	531.065114068297	625.733580839873	162.401640615483	570.906248880794	516.739095452530	174.649058304756	603.158883481375	674.459261138914	41.787802097500	594.930261177338	543.967306039971	37.756705637462	412.226673077128	624.938935832518	35.400633659988	338.089856485881	706.259291766471	95.913682686814	371.966614217302	836.343664610767	40.937898893653	354.574924769098	632.670589024233	1119.332236458740	123.226036251032	802.666266978603	922.732448198222	147.478209597770	595.489874962526	1097.841354824974	724.199169283671	620.171941900887	840.299263712620	756.534059215134	
55	10.125142857143	720.785136291900	965.098792686546	299.904187001503	501.098078957238	1008.791793649044	451.321575322745	688.809690851536	1444.873660244986	289.370620028438	781.480816528573	1364.864399762880	452.141780759970	689.470417496481	1435.078293184371	625.011112147006	686.058034810154	1498.703253574215	440.599221380247	725.020161142985	945.053620833363	574.032647046155	813.482265617027	783.173833859601	529.907742796058	785.832624507791	659.421756122935	597.019710834435	869.275142155637	625.434974432176	507.041479440878	894.558168143776	509.794304368452	525.143404079161	769.088530823079	750.753564862745	339.317734504599	681.910207644377	634.455854910001	280.818312680371	755.945317810862	557.337745866376	356.024977166353	753.275489469129	486.677993808954	370.217817124055	725.662948413226	414.797343569732	360.208944894960	639.669121126489	301.823213147032	302.510189514372	675.349670509175	191.892848044156	382.280843011669	817.605104543693	434.606691607696	537.659225350539	697.548754134570	394.690804698741	600.436739382271	682.922258248424	285.080856107266	554.322083784439	482.964092615952	230.282881536213	529.241743628831	646.540973224702	159.127464906639	569.613021976760	536.991607452038	165.672543750995	602.201464311489	702.428303971413	42.208311679103	595.452249457896	537.183215148188	37.815078633803	412.206402723604	618.166404715942	35.418964955367	338.083232615689	699.531254347059	95.907428449611	371.905356172251	829.582349283609	40.814777158517	354.520773657379	634.494450499814	1119.704831396871	122.852074173522	807.691695291265	926.411713434519	149.193663859374	589.275045937572	1098.696633012895	720.451151933812	608.751168493098	840.365982088330	750.187006397359	
56	10.138571428571	720.404046524544	965.164991820368	299.813298103914	500.607587708355	1009.159599732273	450.815061871632	690.284842063102	1445.085730904209	289.355088230571	781.873678714016	1364.830167073703	452.608512134480	689.102587129021	1435.111773622035	625.092760705872	686.896811709729	1498.876473735733	440.632225732472	724.415741697595	945.611494704847	573.978185490050	814.402069593070	786.233374765381	529.022099168430	789.133927855572	661.898262385508	596.345462244570	872.626811664586	629.248804331243	506.032515165887	900.079719673042	514.710244105205	524.183925780721	766.961465396174	749.782096973582	338.994218269817	678.550618634634	634.364749517751	280.417815371921	751.726974578800	556.508239258272	355.641691919350	748.398350923701	485.927231038206	369.828494879155	720.531758129322	414.317276834679	359.842824408891	633.949061096052	301.726291117352	302.319697258282	669.035788434401	191.670893098294	382.171232464131	826.244124458194	437.081339576896	536.834816652878	707.977290087304	391.756403757097	599.462709737282	698.375600281981	281.480844129836	553.299672599869	500.472430474429	215.794156392244	527.976766232083	668.265996018966	155.121850487454	568.783770879229	558.513025830158	155.566244942218	601.750473133234	731.497482755804	42.408131748276	596.348177113814	530.417842736156	37.880078713628	412.180115045063	611.401655048113	35.441836059995	338.082245846798	692.813825334801	95.896277591174	371.848026366432	822.832390744449	40.671826698202	354.468188853260	636.140782639466	1119.945936803451	122.731216167631	812.109360404403	929.682135645129	151.279275657128	583.557892073842	1099.431370200295	716.938314366624	598.685070309317	840.495175476913	744.150554406049	
57	10.152000000000	719.993254914266	965.162998741449	299.719376703760	500.158202539243	1009.470920972298	450.350812152345	691.718701115334	1445.242783703161	289.455628162267	782.266458693914	1364.728678575505	453.160340689656	688.718718374211	1435.016555593412	625.234561093852	687.726862611837	1498.985296927017	440.786989229828	723.854445905866	946.051460228883	573.903927305445	814.969579326183	788.691837233145	528.416211764818	791.465644473794	663.882006538475	596.051966358031	875.041425559160	632.239032109987	505.636380642178	904.337529879266	519.110216909508	523.878223645433	764.810279662521	748.803131641172	338.700670636449	675.205288094582	634.247248699506	280.012078304416	747.526337235252	555.668167540322	355.248356545784	743.550674606150	485.167882128340	369.408685459213	715.418116000261	413.804982382144	359.475818662065	628.234384331748	301.614976138791	302.140625221444	662.747180892284	191.434264837066	382.060735667608	834.067450850925	439.086790951328	536.560429087802	718.312135141689	387.858464373511	599.200036047069	714.216562767929	277.212795653051	552.801143127088	519.505628901374	200.040823357414	527.382699438308	690.907436174221	150.602604111384	568.407805925818	581.438721250493	144.580937449563	601.837344426026	761.521894462633	42.648032304195	597.458911940957	523.671512399592	37.949527698332	412.147595437562	604.643101277597	35.468551509509	338.087020559474	686.102330041832	95.880199218371	371.798435121319	816.090723541337	40.521473175127	354.414566465819	637.626697192340	1120.064989927472	122.845019228511	815.933817769673	932.524411790465	153.693787637293	578.452425864389	1100.006711469620	713.736956473231	590.036133023514	840.596819317828	738.536946990104	
58	10.165428571429	719.580873979982	965.092118930828	299.614407794261	499.764292117897	1009.728858801125	449.915295737546	693.099122636013	1445.352394842298	289.667238711746	782.669636323257	1364.555898803439	453.773233854925	688.358428948604	1434.787304541857	625.422773880149	688.562650715865	1499.026549961016	441.057776746471	723.341282256491	946.380506347832	573.814080932287	815.158970816247	790.459207907059	528.110526194208	792.721039367547	665.304028374635	596.160875347592	876.390992647570	634.293747197549	505.857867656612	907.205909896410	522.902789456849	524.190955050000	762.655356936999	747.819977592023	338.457269416926	671.902460512939	634.098772543261	279.614814282335	743.361887294466	554.816045379052	354.869125721629	738.743600292132	484.397128139486	368.986404432117	710.331408190994	413.258259848895	359.128525754577	622.533193116615	301.490401007475	301.984245917704	656.488172441477	191.181850933500	381.962430830997	840.954712791586	440.623275051946	536.815317555499	728.578396148873	383.080520909533	599.677072481236	730.412758169510	272.464324228149	552.826335628617	540.189413971460	183.355052892725	527.537094486406	714.441579408033	145.827659631657	568.443859015863	605.864015997727	133.005007722240	602.457899715307	792.362526627368	43.231147274843	598.596892981684	516.941780117043	38.020527098670	412.110547868433	597.888405009178	35.497454930769	338.098232736429	679.392194717161	95.858910072687	371.760614577236	809.353680797892	40.375231966956	354.358852503845	638.963156371759	1120.076952712605	123.175570419767	819.182750200481	934.935213726284	156.394530241977	574.070219263802	1100.385881017996	710.913399120868	582.867867085839	840.593677126665	733.438546718197	
59	10.178857142857	719.198343634801	964.953801766675	299.499812861218	499.438929064846	1009.937683705749	449.499674276838	694.419321801718	1445.422306408414	289.983399758341	783.095180774758	1364.309390523585	454.424829206618	688.064987036499	1434.425634234192	625.650925135188	689.417652146240	1498.998795069473	441.437999444345	722.879232803386	946.607551463441	573.721421601699	814.940764260334	791.460492383459	528.129331172009	792.815464627566	666.119006642247	596.693115568212	876.560191599654	635.336163203548	506.684667497611	908.587606465741	526.024291855187	525.066097836014	760.509577042751	746.833795806346	338.292453858786	668.664729553605	633.917017697711	279.241162456884	739.242143385149	553.950896666416	354.529826299842	733.976271992438	483.613074980269	368.589872230257	705.272553228929	412.678790075626	358.819685559258	616.848152067746	301.354612235364	301.860960216783	650.258531734830	190.914119981750	381.888258520581	846.799625687889	441.716087385797	537.564297712285	738.773611403170	377.558647044631	600.886430664189	746.891161667308	267.458337012990	553.352866334841	562.546547298994	166.123455992855	528.468505531020	738.790548441360	141.080321188070	568.828909868185	631.797665948150	121.162576371682	603.569532407010	823.844467256002	44.464901018881	599.573301528772	510.224105688754	38.089875080488	412.072398390246	591.135060646271	35.526216133986	338.116807018092	672.679932215343	95.831867537127	371.738124377397	802.617677195565	40.242393103758	354.301683439613	640.154599924848	1120.000089075063	123.703698153747	821.876259841313	936.924801387154	159.337178513200	570.509703103073	1100.535495491425	708.519513197622	577.239777463289	840.423054544641	728.928757103410	
